<svg width="19" height="20" viewBox="0 0 19 20" fill="none" xmlns="http://www.w3.org/2000/svg">
<path d="M9.64194 5.15789C7.03335 5.15789 4.92925 7.26199 4.92925 9.87058C4.92925 12.4792 7.03335 14.5833 9.64194 14.5833C12.2505 14.5833 14.3546 12.4792 14.3546 9.87058C14.3546 7.26199 12.2505 5.15789 9.64194 5.15789ZM9.64194 12.9345C7.9562 12.9345 6.57808 11.5604 6.57808 9.87058C6.57808 8.18074 7.9521 6.80672 9.64194 6.80672C11.3318 6.80672 12.7058 8.18074 12.7058 9.87058C12.7058 11.5604 11.3277 12.9345 9.64194 12.9345ZM15.6466 4.96512C15.6466 5.57625 15.1544 6.06433 14.5474 6.06433C13.9363 6.06433 13.4482 5.57215 13.4482 4.96512C13.4482 4.35808 13.9404 3.8659 14.5474 3.8659C15.1544 3.8659 15.6466 4.35808 15.6466 4.96512ZM18.7679 6.08074C18.6982 4.60828 18.3619 3.30398 17.2832 2.22937C16.2085 1.15476 14.9042 0.818436 13.4318 0.744608C11.9142 0.658475 7.36558 0.658475 5.848 0.744608C4.37964 0.814334 3.07534 1.15066 1.99663 2.22527C0.91792 3.29988 0.585693 4.60418 0.511865 6.07664C0.425732 7.59422 0.425732 12.1428 0.511865 13.6604C0.581592 15.1329 0.91792 16.4372 1.99663 17.5118C3.07534 18.5864 4.37554 18.9227 5.848 18.9966C7.36558 19.0827 11.9142 19.0827 13.4318 18.9966C14.9042 18.9268 16.2085 18.5905 17.2832 17.5118C18.3578 16.4372 18.6941 15.1329 18.7679 13.6604C18.8541 12.1428 18.8541 7.59832 18.7679 6.08074ZM16.8074 15.2887C16.4875 16.0927 15.8681 16.712 15.0601 17.036C13.8501 17.5159 10.9791 17.4052 9.64194 17.4052C8.30483 17.4052 5.42964 17.5118 4.22378 17.036C3.41987 16.7161 2.80054 16.0968 2.47651 15.2887C1.99663 14.0788 2.10737 11.2077 2.10737 9.87058C2.10737 8.53348 2.00073 5.65828 2.47651 4.45242C2.79644 3.64851 3.41577 3.02918 4.22378 2.70515C5.43374 2.22527 8.30483 2.33601 9.64194 2.33601C10.9791 2.33601 13.8542 2.22937 15.0601 2.70515C15.864 3.02508 16.4833 3.64441 16.8074 4.45242C17.2873 5.66238 17.1765 8.53348 17.1765 9.87058C17.1765 11.2077 17.2873 14.0829 16.8074 15.2887Z" fill="#4F4F4F"/>
</svg>
