<svg width="21" height="21" viewBox="0 0 21 21" fill="none" xmlns="http://www.w3.org/2000/svg">
<path d="M10.6044 0C4.98523 0 0.432495 4.55273 0.432495 10.1719C0.432495 15.791 4.98523 20.3438 10.6044 20.3438C16.2235 20.3438 20.7762 15.791 20.7762 10.1719C20.7762 4.55273 16.2235 0 10.6044 0ZM15.6001 6.96855L13.9307 14.8354C13.8077 15.3932 13.4755 15.5285 13.012 15.266L10.469 13.3916L9.24265 14.5729C9.1073 14.7082 8.99246 14.823 8.72996 14.823L8.91042 12.235L13.6231 7.97754C13.8282 7.79707 13.578 7.69453 13.3073 7.875L7.48308 11.5418L4.97292 10.7584C4.42742 10.5861 4.41511 10.2129 5.08777 9.95039L14.8946 6.16875C15.3499 6.00469 15.7477 6.27949 15.6001 6.96855Z" fill="#4F4F4F"/>
</svg>
