<svg width="22" height="18" viewBox="0 0 22 18" fill="none" xmlns="http://www.w3.org/2000/svg">
<path d="M19.4739 4.93062C19.4872 5.11716 19.4872 5.30374 19.4872 5.49028C19.4872 11.18 15.1567 17.7358 7.2417 17.7358C4.80324 17.7358 2.53803 17.0296 0.632568 15.8037C0.979027 15.8437 1.31212 15.857 1.6719 15.857C3.68393 15.857 5.53611 15.1775 7.01517 14.0182C5.12304 13.9782 3.53738 12.739 2.99105 11.0334C3.25757 11.0734 3.52405 11.1 3.8039 11.1C4.1903 11.1 4.57675 11.0467 4.9365 10.9535C2.96443 10.5537 1.48532 8.82149 1.48532 6.72948V6.6762C2.05827 6.996 2.72457 7.19587 3.43074 7.22249C2.27147 6.44963 1.51198 5.13049 1.51198 3.6381C1.51198 2.83862 1.72514 2.10575 2.09826 1.46615C4.21692 4.07782 7.40158 5.78338 10.9726 5.96996C10.906 5.65016 10.866 5.31707 10.866 4.98394C10.866 2.61209 12.7848 0.680008 15.1699 0.680008C16.4091 0.680008 17.5284 1.19968 18.3146 2.03914C19.2873 1.8526 20.22 1.49281 21.0462 0.999807C20.7264 1.99919 20.0468 2.83866 19.1541 3.37162C20.0202 3.27839 20.8597 3.03849 21.6325 2.7054C21.0463 3.55816 20.3134 4.31764 19.4739 4.93062Z" fill="#4F4F4F"/>
</svg>
