<svg width="21" height="15" viewBox="0 0 21 15" fill="none" xmlns="http://www.w3.org/2000/svg">
<path d="M20.0714 2.55053C19.8424 1.68829 19.1677 1.00921 18.311 0.778761C16.7583 0.360001 10.5319 0.360001 10.5319 0.360001C10.5319 0.360001 4.30551 0.360001 2.75271 0.778761C1.89605 1.00925 1.22135 1.68829 0.992356 2.55053C0.576294 4.11339 0.576294 7.37415 0.576294 7.37415C0.576294 7.37415 0.576294 10.6349 0.992356 12.1978C1.22135 13.06 1.89605 13.7108 2.75271 13.9412C4.30551 14.36 10.5319 14.36 10.5319 14.36C10.5319 14.36 16.7582 14.36 18.311 13.9412C19.1677 13.7108 19.8424 13.06 20.0714 12.1978C20.4874 10.6349 20.4874 7.37415 20.4874 7.37415C20.4874 7.37415 20.4874 4.11339 20.0714 2.55053ZM8.49548 10.3347V4.41362L13.6995 7.37422L8.49548 10.3347Z" fill="#4F4F4F"/>
</svg>
